<svg width="100" height="32" viewBox="0 0 193 59" fill="none" xmlns="http://www.w3.org/2000/svg"> <path d="M9.5752 15.4713C9.5752 12.6858 11.8333 10.4277 14.6187 10.4277C17.4042 10.4277 19.6622 12.6858 19.6622 15.4713V43.5283C19.6622 46.3138 17.4042 48.5718 14.6187 48.5718C11.8333 48.5718 9.5752 46.3138 9.5752 43.5283V15.4713Z" fill="#58B8EE" /><path d="M24.29 15.4713C24.29 12.6858 26.5481 10.4277 29.3336 10.4277C32.119 10.4277 34.3771 12.6858 34.3771 15.4713V43.5283C34.3771 46.3138 32.119 48.5718 29.3336 48.5718C26.5481 48.5718 24.29 46.3138 24.29 43.5283V15.4713Z" fill="#58B8EE" /><path d="M39.3369 15.4713C39.3369 12.6858 41.595 10.4277 44.3804 10.4277C47.1659 10.4277 49.4239 12.6858 49.4239 15.4713V43.5283C49.4239 46.3138 47.1659 48.5718 44.3804 48.5718C41.595 48.5718 39.3369 46.3138 39.3369 43.5283V15.4713Z" fill="#58B8EE" /><path d="M5.06563 10.0289C7.86329 10.0289 10.1313 7.78387 10.1313 5.01446C10.1313 2.24505 7.86329 0 5.06563 0C2.26796 0 0 2.24505 0 5.01446C0 7.78387 2.26796 10.0289 5.06563 10.0289Z" /><g clipPath="url(#clip0_491_924)"><path d="M67.33 41.8001V33.4001C67.33 33.1501 67.29 32.9101 67.15 32.6901L59 18.3401H63.99C65.91 21.9701 68.62 27.1401 69.76 29.5201C70.78 27.2101 73.67 21.8701 75.59 18.3401H80.22L71.91 32.6601C71.82 32.8201 71.74 32.9301 71.74 33.3601V41.8001H67.33Z" fill="#58B8EE" /><path d="M83.8202 35.8201L81.7502 41.7901H77.4102L85.5102 18.3301H91.0102L99.4602 41.7901H94.8202L92.6602 35.8201H83.8202ZM91.6702 32.1801C89.8102 26.8101 88.6902 23.6101 88.1402 21.6101H88.1102C87.5302 23.8101 86.2902 27.5901 84.8002 32.1801H91.6702Z" fill="#58B8EE" /><path d="M102.7 18.3401H107.05V29.1701C108.66 27.3601 113.88 21.8701 117.1 18.3401H122.42L112.77 28.1401L122.81 41.8001H117.52L109.7 30.9901L107.04 33.4801V41.8001H102.7V18.3401Z" fill="#58B8EE" /><path d="M128.18 35.04C128.75 37.55 130.52 38.75 133.47 38.75C136.5 38.75 137.76 37.46 137.76 35.57C137.76 33.51 136.62 32.51 132.37 31.51C126.28 30.06 124.58 27.89 124.58 24.68C124.59 20.8 127.48 18 132.92 18C138.93 18 141.35 21.31 141.68 24.62H137.24C136.94 22.96 135.96 21.34 132.8 21.34C130.47 21.34 129.1 22.34 129.1 24.2C129.1 26.03 130.21 26.76 134.11 27.68C140.89 29.29 142.28 31.86 142.28 35.06C142.28 39.17 139.19 42.12 133.15 42.12C127.21 42.12 124.28 39.09 123.75 35.04H128.18Z" fill="#58B8EE" /><path d="M167.79 29.97C167.79 36.47 163.97 42.14 156.43 42.14C149.22 42.14 145.37 36.79 145.37 30.07C145.37 23.28 149.52 18 156.74 18C163.51 18 167.79 22.86 167.79 29.97ZM149.93 29.97C149.93 34.72 152.14 38.52 156.6 38.52C161.43 38.52 163.22 34.5 163.22 30.03C163.22 25.38 161.18 21.62 156.54 21.62C151.94 21.62 149.93 25.25 149.93 29.97Z" fill="#58B8EE" /><path d="M172.36 18.3401H176.71V29.1701C178.32 27.3601 183.54 21.8701 186.76 18.3401H192.08L182.43 28.1401L192.48 41.8001H187.19L179.38 30.9901L176.72 33.4801V41.8001H172.37V18.3401H172.36Z" fill="#58B8EE" /> </g> <defs><clipPath id="clip0_491_924"><rect width="133.47" height="24.14" fill="white" transform="translate(59 18)" /></clipPath></defs></svg>