<svg width="193" height="59" viewBox="0 0 193 59" fill="none" xmlns="http://www.w3.org/2000/svg">
<path d="M9.57617 15.4713C9.57617 12.6858 11.8342 10.4277 14.6197 10.4277C17.4051 10.4277 19.6632 12.6858 19.6632 15.4713V43.5283C19.6632 46.3138 17.4051 48.5718 14.6197 48.5718C11.8342 48.5718 9.57617 46.3138 9.57617 43.5283V15.4713Z" fill="#58B8EE"/>
<path d="M24.2891 15.4713C24.2891 12.6858 26.5471 10.4277 29.3326 10.4277C32.118 10.4277 34.3761 12.6858 34.3761 15.4713V43.5283C34.3761 46.3138 32.118 48.5718 29.3326 48.5718C26.5471 48.5718 24.2891 46.3138 24.2891 43.5283V15.4713Z" fill="#58B8EE"/>
<path d="M39.3379 15.4713C39.3379 12.6858 41.5959 10.4277 44.3814 10.4277C47.1669 10.4277 49.4249 12.6858 49.4249 15.4713V43.5283C49.4249 46.3138 47.1669 48.5718 44.3814 48.5718C41.5959 48.5718 39.3379 46.3138 39.3379 43.5283V15.4713Z" fill="#58B8EE"/>
<path d="M5.06563 10.0289C7.86329 10.0289 10.1313 7.78387 10.1313 5.01446C10.1313 2.24505 7.86329 0 5.06563 0C2.26796 0 0 2.24505 0 5.01446C0 7.78387 2.26796 10.0289 5.06563 10.0289Z" fill="#106A9D"/>
<g clip-path="url(#clip0_682_2707)">
<path d="M67.33 41.7998V33.3998C67.33 33.1498 67.29 32.9098 67.15 32.6898L59 18.3398H63.99C65.91 21.9698 68.62 27.1398 69.76 29.5198C70.78 27.2098 73.67 21.8698 75.59 18.3398H80.22L71.91 32.6598C71.82 32.8198 71.74 32.9298 71.74 33.3598V41.7998H67.33Z" fill="#58B8EE"/>
<path d="M83.8202 35.8201L81.7502 41.7901H77.4102L85.5102 18.3301H91.0102L99.4602 41.7901H94.8202L92.6602 35.8201H83.8202ZM91.6702 32.1801C89.8102 26.8101 88.6902 23.6101 88.1402 21.6101H88.1102C87.5302 23.8101 86.2902 27.5901 84.8002 32.1801H91.6702Z" fill="#58B8EE"/>
<path d="M102.699 18.3398H107.049V29.1698C108.659 27.3598 113.879 21.8698 117.099 18.3398H122.419L112.769 28.1398L122.809 41.7998H117.519L109.699 30.9898L107.039 33.4798V41.7998H102.699V18.3398Z" fill="#58B8EE"/>
<path d="M128.18 35.04C128.75 37.55 130.52 38.75 133.47 38.75C136.5 38.75 137.76 37.46 137.76 35.57C137.76 33.51 136.62 32.51 132.37 31.51C126.28 30.06 124.58 27.89 124.58 24.68C124.59 20.8 127.48 18 132.92 18C138.93 18 141.35 21.31 141.68 24.62H137.24C136.94 22.96 135.96 21.34 132.8 21.34C130.47 21.34 129.1 22.34 129.1 24.2C129.1 26.03 130.21 26.76 134.11 27.68C140.89 29.29 142.28 31.86 142.28 35.06C142.28 39.17 139.19 42.12 133.15 42.12C127.21 42.12 124.28 39.09 123.75 35.04H128.18Z" fill="#58B8EE"/>
<path d="M167.789 29.97C167.789 36.47 163.969 42.14 156.429 42.14C149.219 42.14 145.369 36.79 145.369 30.07C145.369 23.28 149.519 18 156.739 18C163.509 18 167.789 22.86 167.789 29.97ZM149.929 29.97C149.929 34.72 152.139 38.52 156.599 38.52C161.429 38.52 163.219 34.5 163.219 30.03C163.219 25.38 161.179 21.62 156.539 21.62C151.939 21.62 149.929 25.25 149.929 29.97Z" fill="#58B8EE"/>
<path d="M172.359 18.3398H176.709V29.1698C178.319 27.3598 183.539 21.8698 186.759 18.3398H192.079L182.429 28.1398L192.479 41.7998H187.189L179.379 30.9898L176.719 33.4798V41.7998H172.369V18.3398H172.359Z" fill="#58B8EE"/>
</g>
<defs>
<clipPath id="clip0_682_2707">
<rect width="133.47" height="24.14" fill="white" transform="translate(59 18)"/>
</clipPath>
</defs>
</svg>
